<?xml version="1.0" encoding="UTF-8"?>
<svg width="64px" height="14px" viewBox="0 0 64 14" version="1.1" xmlns="http://www.w3.org/2000/svg" xmlns:xlink="http://www.w3.org/1999/xlink">
    <title>mc.us</title>
    <g id="WEBSITE-(DESKTOP)" stroke="none" stroke-width="1" fill="none" fill-rule="evenodd">
        <g id="LOGIN-(DESKTOP)" transform="translate(-100.000000, -23.000000)" fill="#020205" fill-rule="nonzero">
            <path d="M102.744,36.636 L102.744,29.58 C102.744,28.2546667 103.066,27.1953333 103.71,26.402 C104.354,25.6086667 105.161333,25.212 106.132,25.212 C106.654667,25.212 107.093333,25.3006667 107.448,25.478 C107.802667,25.6553333 108.092,25.898 108.316,26.206 C108.54,26.514 108.698667,26.8826667 108.792,27.312 C108.885333,27.7413333 108.932,28.2173333 108.932,28.74 L108.932,28.74 L108.932,36.636 L111.564,36.636 L111.564,29.468 C111.564,28.9453333 111.624667,28.432 111.746,27.928 C111.867333,27.424 112.063333,26.9713333 112.334,26.57 C112.604667,26.1686667 112.954667,25.842 113.384,25.59 C113.813333,25.338 114.326667,25.212 114.924,25.212 C115.502667,25.212 115.978667,25.324 116.352,25.548 C116.725333,25.772 117.024,26.0706667 117.248,26.444 C117.472,26.8173333 117.630667,27.2466667 117.724,27.732 C117.817333,28.2173333 117.864,28.7306667 117.864,29.272 L117.864,29.272 L117.864,36.636 L120.496,36.636 L120.496,28.404 C120.496,27.6573333 120.398,26.9573333 120.202,26.304 C120.006,25.6506667 119.702667,25.0813333 119.292,24.596 C118.881333,24.1106667 118.368,23.7233333 117.752,23.434 C117.136,23.1446667 116.398667,23 115.54,23 C114.588,23 113.710667,23.2286667 112.908,23.686 C112.105333,24.1433333 111.48,24.8013333 111.032,25.66 C110.621333,24.708 110.056667,24.0266667 109.338,23.616 C108.619333,23.2053333 107.812,23 106.916,23 C105.908,23 105.035333,23.2473333 104.298,23.742 C103.560667,24.2366667 103.024,24.8386667 102.688,25.548 L102.688,25.548 L102.604,25.548 C102.604,25.268 102.594667,24.918 102.576,24.498 C102.557333,24.078 102.529333,23.7 102.492,23.364 L102.492,23.364 L100,23.364 C100.037333,23.7933333 100.065333,24.288 100.084,24.848 C100.102667,25.408 100.112,25.8653333 100.112,26.22 L100.112,26.22 L100.112,36.636 L102.744,36.636 Z M129.22,37 C130.284,37 131.236,36.818 132.076,36.454 C132.916,36.09 133.616,35.5813333 134.176,34.928 L134.176,34.928 L132.412,33.332 C132.057333,33.78 131.604667,34.1346667 131.054,34.396 C130.503333,34.6573333 129.892,34.788 129.22,34.788 C128.529333,34.788 127.913333,34.6573333 127.372,34.396 C126.830667,34.1346667 126.373333,33.7846667 126,33.346 C125.626667,32.9073333 125.342,32.3986667 125.146,31.82 C124.95,31.2413333 124.852,30.6346667 124.852,30 C124.852,29.3653333 124.95,28.7586667 125.146,28.18 C125.342,27.6013333 125.626667,27.0926667 126,26.654 C126.373333,26.2153333 126.826,25.8653333 127.358,25.604 C127.89,25.3426667 128.501333,25.212 129.192,25.212 C129.826667,25.212 130.424,25.3566667 130.984,25.646 C131.544,25.9353333 131.964,26.2946667 132.244,26.724 L132.244,26.724 L134.148,25.184 C133.606667,24.4746667 132.874,23.9333333 131.95,23.56 C131.026,23.1866667 130.097333,23 129.164,23 C128.156,23 127.218,23.168 126.35,23.504 C125.482,23.84 124.730667,24.316 124.096,24.932 C123.461333,25.548 122.966667,26.2853333 122.612,27.144 C122.257333,28.0026667 122.08,28.9546667 122.08,30 C122.08,31.064 122.262,32.0253333 122.626,32.884 C122.99,33.7426667 123.489333,34.4753333 124.124,35.082 C124.758667,35.6886667 125.51,36.16 126.378,36.496 C127.246,36.832 128.193333,37 129.22,37 Z M136.152,36.804 C136.693333,36.804 137.141333,36.6173333 137.496,36.244 C137.850667,35.8706667 138.028,35.4413333 138.028,34.956 C138.028,34.452 137.850667,34.0226667 137.496,33.668 C137.141333,33.3133333 136.693333,33.136 136.152,33.136 C135.610667,33.136 135.162667,33.318 134.808,33.682 C134.453333,34.046 134.276,34.48 134.276,34.984 C134.276,35.4693333 134.458,35.894 134.822,36.258 C135.186,36.622 135.629333,36.804 136.152,36.804 Z M144.904,37 C145.874667,37 146.756667,36.7526667 147.55,36.258 C148.343333,35.7633333 148.908,35.1613333 149.244,34.452 L149.244,34.452 L149.3,34.452 C149.3,34.732 149.309333,35.082 149.328,35.502 C149.346667,35.922 149.374667,36.3 149.412,36.636 L149.412,36.636 L151.904,36.636 C151.866667,36.2066667 151.838667,35.712 151.82,35.152 C151.801333,34.592 151.792,34.1346667 151.792,33.78 L151.792,23.364 L149.16,23.364 L149.16,30.42 C149.16,31.7453333 148.833333,32.8046667 148.18,33.598 C147.526667,34.3913333 146.668,34.788 145.604,34.788 C144.988,34.788 144.484,34.676 144.092,34.452 C143.7,34.228 143.392,33.9293333 143.168,33.556 C142.944,33.1826667 142.79,32.7486667 142.706,32.254 C142.622,31.7593333 142.58,31.2413333 142.58,30.7 L142.58,30.7 L142.58,23.364 L139.948,23.364 L139.948,31.596 C139.948,32.3426667 140.046,33.0426667 140.242,33.696 C140.438,34.3493333 140.736667,34.9233333 141.138,35.418 C141.539333,35.9126667 142.052667,36.3 142.678,36.58 C143.303333,36.86 144.045333,37 144.904,37 Z M158.164,37 C158.836,37 159.489333,36.9253333 160.124,36.776 C160.758667,36.6266667 161.323333,36.3793333 161.818,36.034 C162.312667,35.6886667 162.709333,35.2453333 163.008,34.704 C163.306667,34.1626667 163.456,33.5 163.456,32.716 C163.456,32.1373333 163.344,31.6333333 163.12,31.204 C162.896,30.7746667 162.583333,30.406 162.182,30.098 C161.780667,29.79 161.309333,29.5333333 160.768,29.328 C160.226667,29.1226667 159.638667,28.9453333 159.004,28.796 C157.996,28.572 157.24,28.3246667 156.736,28.054 C156.232,27.7833333 155.98,27.368 155.98,26.808 C155.98,26.4906667 156.05,26.2246667 156.19,26.01 C156.33,25.7953333 156.516667,25.618 156.75,25.478 C156.983333,25.338 157.249333,25.2353333 157.548,25.17 C157.846667,25.1046667 158.145333,25.072 158.444,25.072 C159.116,25.072 159.722667,25.226 160.264,25.534 C160.805333,25.842 161.225333,26.2386667 161.524,26.724 L161.524,26.724 L163.344,25.184 C162.858667,24.4746667 162.172667,23.9333333 161.286,23.56 C160.399333,23.1866667 159.48,23 158.528,23 C157.893333,23 157.277333,23.0793333 156.68,23.238 C156.082667,23.3966667 155.550667,23.6393333 155.084,23.966 C154.617333,24.2926667 154.239333,24.7126667 153.95,25.226 C153.660667,25.7393333 153.516,26.3506667 153.516,27.06 C153.516,27.676 153.632667,28.194 153.866,28.614 C154.099333,29.034 154.402667,29.384 154.776,29.664 C155.149333,29.944 155.564667,30.1633333 156.022,30.322 C156.479333,30.4806667 156.932,30.616 157.38,30.728 C158.518667,30.9893333 159.382,31.2693333 159.97,31.568 C160.558,31.8666667 160.852,32.324 160.852,32.94 C160.852,33.3133333 160.777333,33.6213333 160.628,33.864 C160.478667,34.1066667 160.278,34.3026667 160.026,34.452 C159.774,34.6013333 159.494,34.7086667 159.186,34.774 C158.878,34.8393333 158.556,34.872 158.22,34.872 C157.473333,34.872 156.787333,34.6946667 156.162,34.34 C155.536667,33.9853333 155.046667,33.5466667 154.692,33.024 L154.692,33.024 L152.816,34.62 C153.450667,35.4226667 154.248667,36.02 155.21,36.412 C156.171333,36.804 157.156,37 158.164,37 Z" id="mc.us"></path>
        </g>
    </g>
</svg>