<?xml version="1.0" encoding="UTF-8"?>
<svg width="50px" height="50px" viewBox="0 0 50 50" version="1.1" xmlns="http://www.w3.org/2000/svg" xmlns:xlink="http://www.w3.org/1999/xlink">
    <title>MORTGAGE</title>
    <g id="ICONS" stroke="none" stroke-width="1" fill="none" fill-rule="evenodd">
        <g id="MORTGAGE" fill="#000000" fill-rule="nonzero">
            <path d="M21.7435897,30.1326941 L21.7435897,28.0731523 C23.8849817,28.0144365 25.6087912,26.2894132 25.6087912,24.1761833 C25.6087912,22.0257847 23.824359,20.2763413 21.6309524,20.2763413 L19.7067766,20.2763413 C18.9272894,20.2763413 18.2930403,19.654708 18.2930403,18.8903254 C18.2930403,18.1259427 18.9271062,17.5043094 19.7067766,17.5043094 L24.3826007,17.5043094 L24.3826007,14.9904834 L21.7434066,14.9904834 L21.7434066,12.933635 L19.179304,12.933635 L19.179304,15.0258565 C17.2346154,15.2797529 15.7289377,16.9153559 15.7289377,18.8903254 C15.7289377,21.040724 17.51337,22.7901673 19.7067766,22.7901673 L21.6309524,22.7901673 C22.4104396,22.7901673 23.0446886,23.4118006 23.0446886,24.1761833 C23.0446886,24.940566 22.4106227,25.5621992 21.6309524,25.5621992 L16.5399267,25.5621992 L16.5399267,28.0760253 L19.179304,28.0760253 L19.179304,30.1328737 L21.7435897,30.1328737 L21.7435897,30.1326941 Z" id="Path"></path>
            <path d="M49.9274725,36.1297852 L28.3283883,28.5461108 L36.0639194,49.7216835 L39.6730769,41.4458091 L47.0723443,48.6999928 L48.885348,46.9225382 L41.4860806,39.6683545 L49.9274725,36.1297852 Z M36.2747253,42.8433168 L32.5716117,32.7061337 L42.9115385,36.3366372 L38.2624542,38.2853911 L36.2747253,42.8433168 Z" id="Shape"></path>
            <polygon id="Path" points="7.29908425 34.2571644 7.29908425 9.57606119 20.6690476 2.82751562 34.039011 9.57588163 34.039011 28.6881419 36.6031136 29.5884508 36.6031136 10.8701429 40.1644689 12.6678877 41.3380952 10.4327372 20.6690476 -5.10337381e-15 2.60272064e-15 10.4327372 1.17362637 12.6678877 4.73498168 10.8701429 4.73498168 36.7709904 29.4326007 36.7709904 28.5144689 34.2571644"></polygon>
        </g>
    </g>
</svg>