<?xml version="1.0" encoding="UTF-8"?>
<svg width="50px" height="50px" viewBox="0 0 50 50" version="1.1" xmlns="http://www.w3.org/2000/svg" xmlns:xlink="http://www.w3.org/1999/xlink">
    <title>REFINANCING</title>
    <g id="ICONS" stroke="none" stroke-width="1" fill="none" fill-rule="evenodd">
        <g id="REFINANCING" fill="#000000" fill-rule="nonzero">
            <path d="M49.8267991,36.1602885 L28.539615,28.6861256 L36.1634417,49.5559139 L39.7204815,41.3995467 L47.0129002,48.5489769 L48.7997233,46.7971895 L41.5073046,39.6477593 L49.8267991,36.1602885 Z M36.3712035,42.7768738 L32.7215645,32.786076 L42.9121782,36.3641535 L38.3302287,38.2847665 L36.3712035,42.7768738 Z" id="Shape"></path>
            <path d="M23.9562215,30.2499749 L23.9562215,28.2199969 C26.0666908,28.162129 27.7656078,26.4620157 27.7656078,24.3793018 C27.7656078,22.2599558 26.0069436,20.5357752 23.8452107,20.5357752 L21.9488208,20.5357752 C21.1805898,20.5357752 20.5554995,19.9231186 20.5554995,19.1697739 C20.5554995,18.4164292 21.1804093,17.8037726 21.9488208,17.8037726 L26.5571241,17.8037726 L26.5571241,15.3262473 L23.956041,15.3262473 L23.956041,13.2992777 L21.4289652,13.2992777 L21.4289652,15.3612866 C19.5123587,15.6115167 18.0284237,17.2235008 18.0284237,19.1699509 C18.0284237,21.2892968 19.787088,23.0134775 21.9488208,23.0134775 L23.8452107,23.0134775 C24.6134417,23.0134775 25.238532,23.6261341 25.238532,24.3794787 C25.238532,25.1328234 24.6136223,25.74548 23.8452107,25.74548 L18.8277017,25.74548 L18.8277017,28.2230053 L21.4289652,28.2230053 L21.4289652,30.2501519 L23.9562215,30.2501519 L23.9562215,30.2499749 Z" id="Path"></path>
            <path d="M7.18835149,34.9339135 C0.584560879,27.170411 0.996113226,15.573292 8.42571611,8.28936759 C15.0087486,1.83559114 25.1625392,0.62054194 33.1181349,5.33544956 L34.4253551,3.2152188 C25.4726475,-2.09075558 14.0461132,-0.724577335 6.63889301,6.53758024 C-1.79070988,14.8018968 -2.19269544,28.0014438 5.43221431,36.7366671 L5.36235871,36.7241025 L3.19322514,38.850704 L10.4506259,40.1650312 L9.11001214,33.0499325 L7.18835149,34.9339135 Z" id="Path"></path>
            <path d="M38.97355,10.5874493 C41.5022504,13.9577685 42.8690374,18.0140084 42.8690374,22.2764137 C42.8690374,25.6035532 42.0361854,28.8048698 40.4683154,31.6526082 L42.8719255,32.4965595 C44.521023,29.3755855 45.3959327,25.8921849 45.3959327,22.2764137 C45.3959327,17.3503855 43.7733695,12.6694554 40.7784237,8.81778835 L42.921384,6.71684689 L35.6641638,5.40251971 L37.0047775,12.5176185 L38.97355,10.5874493 Z" id="Path"></path>
            <path d="M25.6119977,41.8504563 C21.4295067,42.4464781 17.0749941,41.7237486 13.3500843,39.8153462 L12.1796872,42.0111415 C15.4138028,43.668252 19.0690374,44.5311387 22.7307703,44.5311387 C23.8154273,44.5311387 24.9006259,44.4553972 25.9757161,44.3021445 C28.2000843,43.9850213 30.3284237,43.3555529 32.3188569,42.4427618 L31.4621782,40.0979611 C29.6323948,40.9633253 27.6683154,41.5572235 25.6119977,41.8504563 Z" id="Path"></path>
            <path d="M30.322106,35.9277551 L29.456402,33.5580021 C27.4712035,34.7065121 25.1596511,35.3683653 22.6925031,35.3683653 C15.3291457,35.3683653 9.3387125,29.4952146 9.3387125,22.2764137 C9.3387125,15.0576128 15.3293262,9.18446209 22.6925031,9.18446209 C30.05568,9.18446209 36.0462937,15.0576128 36.0462937,22.2764137 C36.0462937,25.0124864 35.1843804,27.5544274 33.7145248,29.6573155 L36.1609147,30.5163089 C37.688532,28.1247891 38.5733695,25.3002333 38.5733695,22.2764137 C38.5733695,13.6912576 31.4491818,6.70693679 22.6925031,6.70693679 C13.9358244,6.70693679 6.81163669,13.6914346 6.81163669,22.2764137 C6.81163669,30.8613928 13.9358244,37.8458906 22.6925031,37.8458906 C25.456041,37.8458906 28.056402,37.1498829 30.322106,35.9277551 Z" id="Path"></path>
        </g>
    </g>
</svg>